<svg xmlns:mydata="http://www.w3.org/2000/svg" mydata:contrastcolor="11111f" mydata:template="Contrast" mydata:presentation="2.5" mydata:layouttype="undefined" mydata:specialfontid="undefined" mydata:id1="004" mydata:id2="292" mydata:companyname="CoinFinder" mydata:companytagline="" version="1.1" xmlns="http://www.w3.org/2000/svg" xmlns:xlink="http://www.w3.org/1999/xlink" viewBox="136 106 279 261"><g fill="#78d64b" fill-rule="none" stroke="none" stroke-width="1" stroke-linecap="butt" stroke-linejoin="miter" stroke-miterlimit="10" stroke-dasharray="" stroke-dashoffset="0" font-family="none" font-weight="none" font-size="none" text-anchor="none" style="mix-blend-mode: normal"><g data-paper-data="{&quot;isGlobalGroup&quot;:true,&quot;bounds&quot;:{&quot;x&quot;:135.82370198306052,&quot;y&quot;:106,&quot;width&quot;:278.35259603387897,&quot;height&quot;:258}}"><g data-paper-data="{&quot;fillRule&quot;:&quot;evenodd&quot;,&quot;fillRuleOriginal&quot;:&quot;evenodd&quot;,&quot;isIcon&quot;:true,&quot;iconStyle&quot;:&quot;standalone&quot;,&quot;selectedEffects&quot;:{&quot;container&quot;:&quot;circle_simple_outline1&quot;,&quot;transformation&quot;:&quot;&quot;,&quot;pattern&quot;:&quot;&quot;},&quot;bounds&quot;:{&quot;x&quot;:192.15536803198916,&quot;y&quot;:152.1548262362295,&quot;width&quot;:165.68970438991494,&quot;height&quot;:130.1012914298172},&quot;widthRatioIconToContainer&quot;:0.8375471026227616,&quot;heightRatioIconToContainer&quot;:0.5046574851799361,&quot;relativeBoundsIconToContainer&quot;:{&quot;top&quot;:-0.020851642375070596,&quot;left&quot;:0.01742113210612785},&quot;iconType&quot;:&quot;icon&quot;,&quot;rawIconId&quot;:&quot;combine_adfdcf6c-0e67-46c4-a132-1e95efae0792&quot;,&quot;blockLetter&quot;:&quot;O&quot;,&quot;blockLetterId&quot;:0,&quot;suitableAsStandaloneIcon&quot;:false}" fill-rule="evenodd"><path d="M242.75276,158.6657c-9.91144,4.19222 -18.689,10.11016 -26.33267,17.75384c-7.64367,7.64367 -13.56165,16.4213 -17.75392,26.33289c-4.34053,10.26215 -6.5108,21.01123 -6.5108,32.24725c0,11.23605 2.17027,21.9855 6.5108,32.24736c2.25494,5.33114 5.00919,10.33417 8.26274,15.00909c0.81886,-0.08939 1.638,-0.17732 2.45744,-0.2638c-3.46887,-4.82898 -6.37956,-10.02423 -8.73206,-15.58573c-4.22687,-9.99378 -6.3403,-20.46275 -6.3403,-31.40692c0,-10.94413 2.11343,-21.41299 6.3403,-31.40637c4.08287,-9.65302 9.84691,-18.20214 17.29212,-25.64735c7.44521,-7.44521 15.99436,-13.20925 25.64746,-17.29212c9.99341,-4.22682 20.4622,-6.34023 31.40637,-6.34023c10.94424,0 21.41299,2.11339 31.40692,6.34023c9.65288,4.08287 18.20188,9.84691 25.64702,17.29212c7.44514,7.44514 13.20903,15.99425 17.29168,25.64735c4.22727,9.99327 6.3409,20.46202 6.3409,31.40637c0,10.94391 -2.11363,21.41267 -6.3409,31.40692c-2.35236,5.56151 -5.26283,10.75675 -8.73141,15.58573c0.819,0.08648 1.638,0.17441 2.457,0.2638c3.25348,-4.67492 6.0077,-9.67795 8.26268,-15.00909c4.34063,-10.26222 6.51095,-21.01134 6.51095,-32.24736c0,-11.23587 -2.17032,-21.98495 -6.51095,-32.24725c-4.19239,-9.9114 -10.11034,-18.68903 -17.75387,-26.33289c-7.64353,-7.64353 -16.42072,-13.56148 -26.33267,-17.75384c-10.26215,-4.34058 -21.01127,-6.51087 -32.24736,-6.51087c-11.23605,0 -21.98517,2.1703 -32.24747,6.51087zM305.38139,189.73652c-10.60839,0.02529 -20.80627,4.10431 -28.5056,11.40229h-42.72058v3.80073h39.03377c-2.60689,3.15748 -4.73894,6.6786 -6.32815,10.45208h-21.30333v3.80073h19.91601c-1.08145,3.3877 -1.72023,6.90076 -1.90042,10.45208h-23.71663v3.80083h23.81168c0.18019,3.55132 0.81875,7.0647 1.90042,10.45197h-17.19837v3.80083h18.4526c2.0963,4.966 5.12875,9.48225 8.93166,13.30292h-55.88997v3.79996h60.26091c14.50842,11.05325 34.50739,11.42605 49.41728,0.92001c14.90989,-10.50516 21.28786,-29.46377 15.76123,-46.84516c-5.52662,-17.3815 -21.68355,-29.17414 -39.9225,-29.13926zM305.38139,269.55251c-20.99092,0 -38.00758,-17.01677 -38.00758,-38.0078c0,-20.99081 17.01655,-38.00747 38.00758,-38.00747c20.99136,0 38.00725,17.01666 38.00725,38.00747c0,20.99103 -17.0159,38.0078 -38.00725,38.0078zM304.54531,199.2385h0.83608c1.04973,0 1.89998,-0.85079 1.89998,-1.90053c0,-1.04951 -0.85025,-1.90031 -1.89998,-1.90031h-0.83608c-1.04973,0 -1.89998,0.85079 -1.89998,1.90031c0,1.04973 0.85025,1.90053 1.89998,1.90053zM315.49173,196.86292l-0.81755,-0.22793h-0.4938c-1.04973,-0.13658 -2.01117,0.60368 -2.14743,1.65319c-0.13626,1.04962 0.6039,2.01106 1.65254,2.14753h0.66603c0.1755,0.02769 0.35536,0.02769 0.53195,0c1.04973,0.14683 2.0188,-0.58482 2.16596,-1.63433c0.14716,-1.04962 -0.58427,-2.01956 -1.63401,-2.1665zM293.5421,201.49994l0.68412,-0.26619c0.87042,-0.31579 1.38634,-1.2127 1.22185,-2.12377c-0.16416,-0.91108 -0.96111,-1.57133 -1.88701,-1.56282c-0.22662,0.00065 -0.4514,0.03913 -0.66516,0.11391l-0.79814,0.30402c-0.84949,0.33574 -1.33991,1.22828 -1.168,2.1253c0.17201,0.8969 0.95784,1.54484 1.87109,1.54244c0.25366,0.00883 0.50655,-0.03641 0.74124,-0.13288zM211.35075,204.93953h5.70114v-3.80073h-5.70114zM222.75303,204.93953h5.70114v-3.80073h-5.70114zM326.85565,202.48808l-0.70309,-0.49413c-0.86115,-0.60357 -2.04714,-0.39515 -2.65104,0.46557c-0.6039,0.86071 -0.39569,2.04747 0.46546,2.65093l0.58972,0.41815c0.4055,0.30042 0.91347,0.4273 1.41272,0.35242c0.49925,-0.07489 0.94727,-0.34533 1.24703,-0.75149c0.62134,-0.83139 0.46001,-2.00735 -0.36081,-2.64144zM283.90703,207.46695l0.20918,-0.18989h0.13288l0.22815,-0.19022c0.7976,-0.68216 0.89124,-1.88189 0.20907,-2.67938c-0.68227,-0.79771 -1.882,-0.89135 -2.67959,-0.20918l-0.64619,0.55125c-0.78038,0.69862 -0.8484,1.89715 -0.15195,2.67949c0.36027,0.41019 0.87946,0.64543 1.42526,0.64608c0.48671,-0.03161 0.94269,-0.24952 1.27319,-0.60815zM324.99273,214.91863l-3.01076,3.01032c3.04564,3.70731 4.87477,8.44723 4.87477,13.60748c0,5.15982 -1.83022,9.89854 -4.87477,13.60585l-3.86864,-3.86885c2.06785,-2.69922 3.29962,-6.07329 3.29962,-9.73699c0,-8.13558 -6.06293,-14.85125 -13.91575,-15.88822l0.00109,-5.48095c4.33409,0.42643 8.29648,2.14405 11.48927,4.76652l3.01076,-3.01032c-4.48234,-3.80105 -10.28039,-6.09793 -16.61693,-6.09793c-14.20026,0 -25.71155,11.51118 -25.71155,25.7109c0,13.48671 10.38547,24.5393 23.59356,25.6177v-4.24656c-10.8518,-1.06717 -19.35888,-10.24268 -19.35888,-21.37114c0,-11.12704 8.50708,-20.30385 19.35888,-21.37092v5.4804c-7.15845,0.94552 -12.82515,6.61396 -13.77067,13.77328h4.29224c1.00177,-5.49621 5.81473,-9.67955 11.59643,-9.67955c6.50441,0 11.79667,5.29226 11.79667,11.79678c0,6.50474 -5.29226,11.79689 -11.79667,11.79689c-5.7817,0 -10.59466,-4.18323 -11.59643,-9.67944h-4.29224c1.03687,7.85249 7.75242,13.91423 15.88866,13.91423c3.6637,0 7.03854,-1.23166 9.73754,-3.29941l3.86864,3.86744c-3.19498,2.62248 -7.153,4.34554 -11.48818,4.77197v4.24602c13.20721,-1.07709 23.59334,-12.13056 23.59334,-25.61704c-0.00109,-6.33828 -2.29785,-12.13623 -6.1,-16.61846zM335.02677,214.32738c0.42294,-0.27884 0.71617,-0.71432 0.81537,-1.21008c0.10029,-0.49587 -0.00218,-1.01114 -0.28233,-1.43147c-0.15261,-0.22804 -0.30413,-0.47505 -0.47527,-0.7032c-0.35427,-0.51091 -0.93636,-0.81613 -1.55879,-0.817c-0.70309,0.00818 -1.34405,0.40387 -1.66671,1.0288c-0.32266,0.62504 -0.27361,1.37708 0.12754,1.95481l0.17114,0.26598l0.22782,0.32309c0.57446,0.87358 1.74519,1.11982 2.62269,0.55103zM276.87579,216.34181l0.36103,-0.68412c0.51244,-0.91326 0.18967,-2.06916 -0.72217,-2.58454c-0.2856,-0.15708 -0.6052,-0.24189 -0.93113,-0.24701c-0.68576,0.00109 -1.31745,0.37149 -1.65341,0.96918l-0.39907,0.76021c-0.31318,0.58809 -0.29541,1.2975 0.04709,1.86913c0.34217,0.57185 0.95893,0.92263 1.62529,0.92437c0.70047,-0.00196 1.34318,-0.38904 1.67238,-1.00722zM234.15521,219.19233h5.70125v-3.80073h-5.70125zM336.88969,224.19038c0.19948,0.88393 0.99414,1.50429 1.89998,1.48216c0.14498,0.01853 0.29214,0.01853 0.43712,0.00011c0.49162,-0.11304 0.91783,-0.41695 1.18599,-0.8448c0.26707,-0.42763 0.35318,-0.94421 0.23981,-1.43572c0,-0.28505 -0.13299,-0.55103 -0.20929,-0.81711c-0.22237,-0.86115 -1.01158,-1.45338 -1.89998,-1.42526c-0.15806,-0.01864 -0.31721,-0.01864 -0.47527,0c-0.48944,0.12525 -0.90911,0.44017 -1.16528,0.8751c-0.25726,0.43504 -0.33029,0.95446 -0.20275,1.44335c0.07521,0.22793 0.13299,0.47516 0.18967,0.72217zM271.26959,228.80833h0.26608c0.95391,0.00927 1.76699,-0.6899 1.90042,-1.63433v-0.76021c0.15948,-1.03305 -0.54525,-2.00103 -1.57743,-2.16639h-0.28505c-0.94748,-0.01068 -1.75805,0.67846 -1.90031,1.61537c0,0.26598 0,0.55103 -0.13299,0.83608c-0.05843,0.51069 0.09244,1.02313 0.41848,1.42057c0.32593,0.39733 0.79869,0.64586 1.3108,0.68892zM311.58931,232.45743c0.01526,-0.10159 0.02834,-0.20351 0.03815,-0.30565c0.00981,-0.10236 0.01744,-0.20471 0.02289,-0.30729c0.00436,-0.10258 0.00763,-0.20526 0.00763,-0.30805c0,-0.10268 -0.00327,-0.20537 -0.00763,-0.30794c-0.00545,-0.10258 -0.01308,-0.20493 -0.02289,-0.30729c-0.00981,-0.10214 -0.02289,-0.20406 -0.03815,-0.30565c-0.01526,-0.10159 -0.0327,-0.20275 -0.05232,-0.30347c-0.01962,-0.10083 -0.04251,-0.20101 -0.06758,-0.30064c-0.02507,-0.09963 -0.05232,-0.19861 -0.08175,-0.29693c-0.03052,-0.09832 -0.06213,-0.19578 -0.09702,-0.29257c-0.03488,-0.09658 -0.07194,-0.1924 -0.11119,-0.28734c-0.03924,-0.09494 -0.08066,-0.1888 -0.12427,-0.28156c-0.04469,-0.09287 -0.09048,-0.18466 -0.13844,-0.27524c-0.04905,-0.09058 -0.0992,-0.17997 -0.15261,-0.26805c-0.05232,-0.08819 -0.10683,-0.17496 -0.1646,-0.2602c-0.05668,-0.08557 -0.11664,-0.1695 -0.17768,-0.25191c-0.06104,-0.08263 -0.12427,-0.16351 -0.18858,-0.24287c-0.0654,-0.07947 -0.13299,-0.15719 -0.20166,-0.23327c-0.06867,-0.0762 -0.13953,-0.15054 -0.21256,-0.22314c-0.07303,-0.0726 -0.14716,-0.14345 -0.22346,-0.21245c-0.0763,-0.069 -0.1537,-0.13604 -0.23327,-0.20123c-0.07848,-0.06519 -0.16024,-0.12841 -0.24199,-0.18956c-0.08284,-0.06126 -0.16678,-0.12034 -0.2518,-0.17735c-0.08612,-0.05701 -0.17223,-0.11206 -0.26053,-0.16471c-0.0883,-0.05287 -0.17768,-0.10356 -0.26816,-0.15195c-0.09048,-0.04851 -0.18204,-0.09451 -0.27579,-0.13855c-0.09266,-0.04382 -0.1864,-0.08546 -0.28124,-0.12481c-0.09484,-0.03935 -0.19076,-0.0762 -0.28778,-0.11075c-0.09593,-0.03477 -0.19403,-0.06693 -0.29214,-0.0968c-0.09811,-0.02976 -0.1973,-0.05712 -0.2965,-0.08208c-0.10029,-0.02507 -0.20057,-0.04753 -0.30086,-0.06747c-0.10138,-0.02017 -0.20166,-0.03761 -0.30413,-0.05276c-0.10138,-0.01515 -0.20275,-0.02758 -0.30522,-0.03761c-0.10247,-0.01014 -0.20493,-0.01777 -0.3074,-0.02278c-0.10247,-0.00491 -0.20493,-0.00741 -0.3074,-0.00741c-0.10356,0 -0.20602,0.00251 -0.30849,0.00741c-0.10247,0.00501 -0.20493,0.01264 -0.3074,0.02278c-0.10247,0.01003 -0.20384,0.02246 -0.30522,0.03761c-0.10247,0.01515 -0.20275,0.03259 -0.30413,0.05276c-0.10029,0.01995 -0.20057,0.0424 -0.30086,0.06747c-0.0992,0.02496 -0.19839,0.05232 -0.2965,0.08208c-0.09811,0.02987 -0.19512,0.06202 -0.29214,0.0968c-0.09702,0.03456 -0.19294,0.0714 -0.28778,0.11075c-0.09484,0.03935 -0.18858,0.08099 -0.28124,0.12481c-0.09266,0.04404 -0.18531,0.09004 -0.27579,0.13855c-0.09048,0.0484 -0.17986,0.09909 -0.26816,0.15195c-0.08721,0.05265 -0.17441,0.1077 -0.25944,0.16471c-0.08612,0.05712 -0.17005,0.1162 -0.2518,0.17735c-0.08284,0.06115 -0.16351,0.12438 -0.24308,0.18956c-0.07957,0.06519 -0.15697,0.13222 -0.23327,0.20123c-0.0763,0.069 -0.15043,0.13986 -0.22346,0.21245c-0.07303,0.0726 -0.1428,0.14694 -0.21256,0.22314c-0.06867,0.07609 -0.13626,0.15381 -0.20057,0.23327c-0.0654,0.07936 -0.12863,0.16024 -0.18967,0.24287c-0.06104,0.08241 -0.121,0.16634 -0.17768,0.25191c-0.05668,0.08524 -0.11228,0.17201 -0.1646,0.2602c-0.05341,0.08808 -0.10356,0.17746 -0.15152,0.26805c-0.04905,0.09058 -0.09484,0.18237 -0.13953,0.27524c-0.0436,0.09276 -0.08502,0.18673 -0.12427,0.28156c-0.03924,0.09484 -0.0763,0.19076 -0.11119,0.28734c-0.03379,0.0968 -0.06649,0.19425 -0.09593,0.29257c-0.03052,0.09832 -0.05777,0.1973 -0.08284,0.29693c-0.02507,0.09963 -0.04687,0.19981 -0.06758,0.30064c-0.01962,0.10072 -0.03706,0.20188 -0.05232,0.30347c-0.01526,0.10159 -0.02725,0.20351 -0.03815,0.30565c-0.00981,0.10236 -0.01744,0.20471 -0.0218,0.30729c-0.00545,0.10268 -0.00763,0.20526 -0.00763,0.30794c0,0.10279 0.00218,0.20548 0.00763,0.30805c0.00436,0.10258 0.01199,0.20504 0.0218,0.30729c0.0109,0.10214 0.02289,0.20406 0.03815,0.30565c0.01526,0.10159 0.0327,0.20275 0.05232,0.30358c0.02071,0.10072 0.04251,0.2009 0.06758,0.30053c0.02507,0.09963 0.05232,0.19861 0.08284,0.29693c0.02943,0.09832 0.06213,0.19588 0.09593,0.29246c0.03488,0.09669 0.07194,0.19261 0.11119,0.28745c0.03924,0.09484 0.08066,0.18869 0.12427,0.28167c0.04469,0.09276 0.09048,0.18455 0.13953,0.27513c0.04796,0.09058 0.09811,0.17997 0.15152,0.26816c0.05232,0.08808 0.10792,0.17485 0.1646,0.2602c0.05668,0.08546 0.11664,0.1694 0.17768,0.2518c0.06104,0.08263 0.12427,0.16351 0.18967,0.24287c0.06431,0.07957 0.1319,0.15719 0.20057,0.23327c0.06976,0.0762 0.13953,0.15054 0.21256,0.22314c0.07303,0.0726 0.14716,0.14356 0.22346,0.21245c0.0763,0.069 0.1537,0.13604 0.23327,0.20123c0.07957,0.06529 0.16024,0.12841 0.24308,0.18956c0.08175,0.06115 0.16569,0.12034 0.2518,0.17735c0.08502,0.05701 0.17223,0.11206 0.25944,0.16471c0.0883,0.05287 0.17768,0.10356 0.26816,0.15195c0.09048,0.04851 0.18313,0.09451 0.27579,0.13855c0.09266,0.04382 0.1864,0.08546 0.28124,0.12492c0.09484,0.03924 0.19076,0.0762 0.28778,0.11075c0.09702,0.03466 0.19403,0.06682 0.29214,0.09669c0.09811,0.02976 0.1973,0.05712 0.2965,0.08219c0.10029,0.02496 0.20057,0.04742 0.30086,0.06737c0.10138,0.02017 0.20166,0.03761 0.30413,0.05276c0.10138,0.01515 0.20275,0.02758 0.30522,0.03761c0.10247,0.01014 0.20493,0.01777 0.3074,0.02278c0.10247,0.00501 0.20493,0.00741 0.30849,0.00741c0.10247,0 0.20493,-0.0024 0.3074,-0.00741c0.10247,-0.00501 0.20493,-0.01264 0.3074,-0.02278c0.10247,-0.01003 0.20384,-0.02246 0.30522,-0.03761c0.10247,-0.01515 0.20275,-0.03259 0.30413,-0.05276c0.10029,-0.01995 0.20057,-0.0424 0.30086,-0.06737c0.0992,-0.02507 0.19839,-0.05232 0.2965,-0.08219c0.09811,-0.02987 0.19621,-0.06202 0.29214,-0.09669c0.09702,-0.03456 0.19294,-0.07151 0.28778,-0.11075c0.09484,-0.03946 0.18858,-0.0811 0.28124,-0.12492c0.09375,-0.04404 0.18531,-0.09004 0.27579,-0.13855c0.09048,-0.0484 0.17986,-0.09909 0.26816,-0.15195c0.0883,-0.05265 0.17441,-0.10759 0.26053,-0.16471c0.08502,-0.05701 0.16896,-0.11609 0.2518,-0.17735c0.08175,-0.06115 0.16351,-0.12427 0.24199,-0.18956c0.07957,-0.06519 0.15697,-0.13222 0.23327,-0.20123c0.0763,-0.069 0.15043,-0.13986 0.22346,-0.21245c0.07303,-0.0726 0.14389,-0.14694 0.21256,-0.22314c0.06867,-0.07609 0.13626,-0.1537 0.20166,-0.23327c0.06431,-0.07936 0.12754,-0.16024 0.18858,-0.24287c0.06104,-0.08241 0.121,-0.16634 0.17768,-0.2518c0.05777,-0.08535 0.11228,-0.17212 0.1646,-0.2602c0.05341,-0.08819 0.10356,-0.17757 0.15261,-0.26816c0.04796,-0.09058 0.09375,-0.18237 0.13844,-0.27513c0.0436,-0.09287 0.08502,-0.18673 0.12427,-0.28167c0.03924,-0.09484 0.0763,-0.19076 0.11119,-0.28745c0.03488,-0.09658 0.06649,-0.19414 0.09702,-0.29246c0.02943,-0.09832 0.05668,-0.1973 0.08175,-0.29693c0.02507,-0.09963 0.04796,-0.19981 0.06758,-0.30053c0.01962,-0.10083 0.03706,-0.20199 0.05232,-0.30358zM339.58759,233.06514h-0.18967c-0.97997,-0.00501 -1.80188,0.73568 -1.89998,1.7102v0.11413c-0.00981,0.1138 -0.00981,0.22826 0,0.34206v0.17092c-0.12318,1.03839 0.61589,1.98086 1.65363,2.10949h0.24635c0.96689,0.00709 1.78443,-0.71257 1.90107,-1.67227c0,-0.28505 0,-0.5701 0.09484,-0.83619c0.0218,-1.02815 -0.77831,-1.88723 -1.80624,-1.93835zM273.74011,237.91112c-0.17517,-0.90682 -0.97692,-1.55607 -1.90031,-1.53928h-0.36103c-1.0276,0.2009 -1.69886,1.19525 -1.50145,2.2234l0.17114,0.83608c0.19109,0.89145 0.9888,1.52162 1.90031,1.50134c0.13866,0.01864 0.27938,0.01864 0.41815,0c1.02215,-0.22717 1.66802,-1.23853 1.44423,-2.26156c-0.07609,-0.34195 -0.11413,-0.55103 -0.17103,-0.75999zM225.60355,243.89721v3.80083h5.70114v-3.80083zM237.00583,243.89721v3.80083h5.70114v-3.80083zM337.00305,244.84731c-0.25398,-0.12318 -0.53304,-0.18825 -0.81646,-0.18989c-0.72707,-0.00153 -1.39092,0.41161 -1.71031,1.06423v0.15195l-0.17114,0.36103c-0.35645,0.56662 -0.38806,1.27843 -0.08393,1.87458c0.30413,0.59616 0.89821,0.98847 1.56642,1.03305c0.71072,0.00153 1.36367,-0.3946 1.69069,-1.0263c0.13299,-0.26598 0.26598,-0.51298 0.38043,-0.75999c0.44148,-0.92993 0.06213,-2.0418 -0.8557,-2.50867zM278.24404,248.99031l-0.19011,-0.30413l-0.11391,-0.20907c-0.34686,-0.56999 -0.96743,-0.91587 -1.63433,-0.91217c-0.34937,0.00251 -0.69121,0.10116 -0.98825,0.28505c-0.88884,0.54808 -1.16888,1.71075 -0.62711,2.60351l0.45597,0.72217c0.56781,0.88023 1.74072,1.1353 2.62258,0.5701c0.88023,-0.5676 1.1353,-1.7405 0.57021,-2.62258zM329.09791,254.34929c-0.48944,0.00196 -0.95817,0.19251 -1.31135,0.53217h-0.28451l-0.15261,0.13299c-0.58209,0.52977 -0.77831,1.36421 -0.49162,2.09826c0.28669,0.73361 0.99632,1.21433 1.78443,1.20888c0.47527,-0.00545 0.93418,-0.18095 1.29173,-0.49489l0.60826,-0.58863c0.73688,-0.74124 0.73688,-1.93857 0,-2.6797c-0.43385,-0.25922 -0.95381,-0.33421 -1.44433,-0.20907zM285.82641,257.21844h-0.09484l-0.38011,-0.30413c-0.33694,-0.26096 -0.75182,-0.40147 -1.17825,-0.39853c-0.57501,-0.00196 -1.12015,0.25649 -1.48238,0.70266c-0.31655,0.39569 -0.46262,0.90039 -0.4055,1.404c0.05712,0.50252 0.31241,0.96253 0.70963,1.27646l0.66505,0.51233c0.32658,0.25398 0.72696,0.39351 1.14032,0.39896c0.61807,0.01853 1.20648,-0.26489 1.57732,-0.75977c0.63387,-0.83499 0.47232,-2.02534 -0.36114,-2.66085zM319.12056,260.98134c-0.26816,0.00218 -0.53413,0.05995 -0.77831,0.17114l-0.34228,0.15261l-0.22782,0.11337c-0.82736,0.35209 -1.29391,1.23613 -1.1195,2.11799c0.17441,0.88186 0.94291,1.52064 1.84112,1.53045c0.24744,0.00109 0.49162,-0.04469 0.72271,-0.13299l0.77831,-0.34119c0.8339,-0.35536 1.30154,-1.24921 1.11623,-2.13652c-0.18531,-0.88622 -0.97016,-1.51955 -1.876,-1.51301zM208.50023,261.00096v3.79996h5.70114v-3.79996zM296.05056,262.46383h-0.62711c-0.19098,-0.05886 -0.38915,-0.09157 -0.58918,-0.09484c-1.04951,-0.16242 -2.03231,0.55593 -2.19495,1.60566c-0.16264,1.04973 0.55626,2.03188 1.60588,2.19539l0.79814,0.26598c0.18346,0.01744 0.36768,0.01744 0.55114,0c1.04962,0.15152 2.02349,-0.57555 2.17609,-1.62529c0.15152,-1.04973 -0.57555,-2.02316 -1.62496,-2.17577zM307.301,263.85148h-0.74124c-1.04973,0 -1.89998,0.85025 -1.89998,1.89998c0,1.04973 0.85025,1.89998 1.89998,1.89998h0.85461c1.04973,-0.03161 1.87491,-0.90693 1.84439,-1.95666c-0.03161,-1.01049 -0.8448,-1.81387 -1.84221,-1.8433c-0.03815,-0.00109 -0.07739,-0.00109 -0.11555,0z" data-paper-data="{&quot;isPathIcon&quot;:true}"></path></g><g><path d="M184.27729,316.91067c-0.15038,-0.88944 -0.50952,-1.20991 -1.32484,-1.07206l-3.63187,0.61407c-0.81532,0.13785 -0.78918,0.74334 -0.77504,1.50334c0.00429,1.829 -1.46397,2.83964 -3.4652,3.178c-2.44595,0.41356 -4.33922,-0.63863 -4.74025,-3.01046l-1.30333,-7.70845c-0.39476,-2.33477 1.04109,-3.98796 3.48705,-4.40151c2.00123,-0.33836 3.1329,0.04209 4.11793,1.13348c0.37167,0.39459 0.52778,1.09246 1.30604,0.96088l3.55775,-0.60154c0.85238,-0.14412 1.11753,-0.37955 0.96714,-1.26898c-1.27756,-4.62515 -6.23068,-6.1892 -10.82611,-5.41222c-4.41012,0.74565 -9.49969,4.23642 -8.51593,10.05482l1.47878,8.74613c0.98376,5.8184 6.93804,7.4419 11.34816,6.69624c4.59542,-0.77698 9.12802,-4.63101 8.31971,-9.41173z" data-paper-data="{&quot;glyphName&quot;:&quot;C&quot;,&quot;glyphIndex&quot;:0,&quot;firstGlyphOfWord&quot;:true,&quot;word&quot;:1}" fill-rule="nonzero"></path><path d="M206.78095,304.38742c-0.75848,-5.88993 -6.67662,-7.70476 -11.11271,-7.1335c-4.43609,0.57126 -9.6268,3.81664 -8.86832,9.70657l1.13292,8.79762c0.75848,5.88993 6.60207,7.71436 11.03815,7.1431c4.43609,-0.57126 9.70136,-3.82624 8.94287,-9.71617zM201.99401,313.41683c0.30723,2.38579 -1.22994,3.98591 -3.69029,4.30274c-2.42307,0.31203 -4.31548,-0.84643 -4.62271,-3.23222l-0.99851,-7.75383c-0.30723,-2.38579 1.22994,-3.98591 3.65301,-4.29794c2.46035,-0.31683 4.35276,0.84163 4.65999,3.22742z" data-paper-data="{&quot;glyphName&quot;:&quot;O&quot;,&quot;glyphIndex&quot;:1,&quot;word&quot;:1}" fill-rule="nonzero"></path><path d="M223.50486,314.4484l-2.35731,0.22384l-1.35726,-14.2935l2.24505,-0.21318c0.8606,-0.08172 1.04603,-0.51463 0.98207,-1.18815l-0.2878,-3.03082c-0.06395,-0.67352 -0.32754,-1.06379 -1.18815,-0.98207l-10.40208,0.98775c-0.8606,0.08172 -1.04603,0.51463 -0.98207,1.18815l0.2878,3.03082c0.06395,0.67352 0.32754,1.06379 1.18815,0.98207l2.28247,-0.21674l1.35726,14.2935l-2.35731,0.22384c-0.8606,0.08172 -1.04603,0.51463 -0.98207,1.18815l0.28069,2.95599c0.06395,0.67352 0.32754,1.06379 1.18815,0.98207l10.58917,-1.00551c0.8606,-0.08172 1.04603,-0.51463 0.98207,-1.18815l-0.28069,-2.95599c-0.06395,-0.67352 -0.32754,-1.06379 -1.18815,-0.98207z" data-paper-data="{&quot;glyphName&quot;:&quot;I&quot;,&quot;glyphIndex&quot;:2,&quot;word&quot;:1}" fill-rule="nonzero"></path><path d="M246.94039,293.29815l-3.60182,0.21517c-0.67534,0.04034 -1.0746,0.29011 -1.02305,1.15305l0.77775,13.01908l-8.72056,-12.35632c-0.53257,-0.72124 -0.82659,-1.23082 -1.76456,-1.17478l-3.52678,0.21069c-0.86294,0.05155 -1.0634,0.47771 -1.02305,1.15305l1.34481,22.51138c0.05155,0.86294 0.47771,1.0634 1.15305,1.02305l3.71438,-0.22189c0.67534,-0.04034 1.0746,-0.29011 1.02305,-1.15305l-0.77999,-13.0566l8.7228,12.39384c0.53257,0.72124 0.82659,1.23082 1.76456,1.17478l3.41423,-0.20396c0.86294,-0.05155 1.0634,-0.47771 1.02305,-1.15305l-1.34481,-22.51138c-0.05155,-0.86294 -0.47771,-1.0634 -1.15305,-1.02305z" data-paper-data="{&quot;glyphName&quot;:&quot;N&quot;,&quot;glyphIndex&quot;:3,&quot;word&quot;:1}" fill-rule="nonzero"></path><path d="M271.32652,292.67233l-16.15902,0.30623c-0.86432,0.01638 -1.08196,0.43402 -1.06914,1.11045l0.4273,22.54747c0.01282,0.67642 0.24613,1.08552 1.11045,1.06914l3.72033,-0.0705c0.86432,-0.01638 1.08695,-0.17097 1.06843,-1.14803l-0.16665,-8.79351l9.77057,-0.18516c0.86432,-0.01638 1.08196,-0.43402 1.06914,-1.11045l-0.05626,-2.96875c-0.01282,-0.67642 -0.24613,-1.08552 -1.11045,-1.06914l-9.77057,0.18516l-0.08332,-4.39676l11.34889,-0.21507c0.86432,-0.01638 1.08196,-0.43402 1.06914,-1.11045l-0.0584,-3.08149c-0.01282,-0.67642 -0.24613,-1.08552 -1.11045,-1.06914z" data-paper-data="{&quot;glyphName&quot;:&quot;F&quot;,&quot;glyphIndex&quot;:4,&quot;word&quot;:1}" fill-rule="nonzero"></path><path d="M287.58732,312.36929l-2.36774,-0.02865l0.17373,-14.35675l2.25499,0.02729c0.86441,0.01046 1.09491,-0.40023 1.1031,-1.07672l0.03684,-3.04423c0.00819,-0.6765 -0.21231,-1.09264 -1.07672,-1.1031l-10.4481,-0.12643c-0.86441,-0.01046 -1.09491,0.40023 -1.1031,1.07672l-0.03684,3.04423c-0.00819,0.6765 0.21231,1.09264 1.07672,1.1031l2.29257,0.02774l-0.17373,14.35675l-2.36774,-0.02865c-0.86441,-0.01046 -1.09491,0.40023 -1.1031,1.07672l-0.03593,2.96907c-0.00819,0.6765 0.21231,1.09264 1.07672,1.1031l10.63602,0.1287c0.86441,0.01046 1.09491,-0.40023 1.1031,-1.07672l0.03593,-2.96907c0.00819,-0.6765 -0.21231,-1.09264 -1.07672,-1.1031z" data-paper-data="{&quot;glyphName&quot;:&quot;I&quot;,&quot;glyphIndex&quot;:5,&quot;word&quot;:1}" fill-rule="nonzero"></path><path d="M313.14336,293.83699l-3.60424,-0.1699c-0.6758,-0.03186 -1.0994,0.17394 -1.1401,1.03746l-0.61411,13.02783l-7.3541,-13.2153c-0.45268,-0.77389 -0.69071,-1.3119 -1.62931,-1.35614l-3.52915,-0.16636c-0.86352,-0.04071 -1.10825,0.36166 -1.1401,1.03746l-1.06187,22.5265c-0.04071,0.86352 0.36166,1.10825 1.03746,1.1401l3.71687,0.17521c0.6758,0.03186 1.0994,-0.17394 1.1401,-1.03746l0.61588,-13.06537l7.35233,13.25284c0.45268,0.77389 0.69071,1.3119 1.62931,1.35614l3.41652,0.16105c0.86352,0.04071 1.10825,-0.36166 1.1401,-1.03746l1.06187,-22.5265c0.04071,-0.86352 -0.36166,-1.10825 -1.03746,-1.1401z" data-paper-data="{&quot;glyphName&quot;:&quot;N&quot;,&quot;glyphIndex&quot;:6,&quot;word&quot;:1}" fill-rule="nonzero"></path><path d="M329.75624,295.14551l-8.386,-0.74727c-0.86106,-0.07673 -1.12238,0.31507 -1.18243,0.98894l-2.00161,22.46251c-0.06005,0.67388 0.12788,1.1057 0.98894,1.18243l8.386,0.74727c4.45506,0.39699 10.29754,-1.64836 10.8213,-7.52605l0.69389,-7.787c0.52042,-5.84025 -4.86502,-8.92384 -9.32009,-9.32083zM332.55145,311.20546c-0.21351,2.396 -2.05573,3.59029 -4.5266,3.37012l-3.594,-0.32026l1.26769,-14.22626l3.594,0.32026c2.47088,0.22018 4.06957,1.75882 3.8594,4.11739z" data-paper-data="{&quot;glyphName&quot;:&quot;D&quot;,&quot;glyphIndex&quot;:7,&quot;word&quot;:1}" fill-rule="nonzero"></path><path d="M359.33447,318.11518l-16.47915,-2.10417c-0.6711,-0.08569 -1.10977,0.08564 -1.21927,0.94315l-0.39037,3.05722c-0.10949,0.85751 0.27206,1.13358 0.94315,1.21927l16.47915,2.10417c0.6711,0.08569 1.10977,-0.08564 1.21927,-0.94315l0.39037,-3.05722c0.10949,-0.85751 -0.27206,-1.13358 -0.94315,-1.21927zM358.70806,308.18353l-12.75084,-1.62812c-0.6711,-0.08569 -1.10977,0.08564 -1.21927,0.94315l-0.39037,3.05722c-0.10949,0.85751 0.27206,1.13358 0.94315,1.21927l12.75084,1.62812c0.6711,0.08569 1.10977,-0.08564 1.21927,-0.94315l0.39037,-3.05722c0.10949,-0.85751 -0.27206,-1.13358 -0.94315,-1.21927zM361.80044,298.8025l-16.47915,-2.10417c-0.6711,-0.08569 -1.10977,0.08564 -1.21927,0.94315l-0.39037,3.05722c-0.10949,0.85751 0.27206,1.13358 0.94315,1.21927l16.47915,2.10417c0.6711,0.08569 1.10977,-0.08564 1.21927,-0.94315l0.39037,-3.05722c0.10949,-0.85751 -0.27206,-1.13358 -0.94315,-1.21927z" data-paper-data="{&quot;glyphName&quot;:&quot;ξ&quot;,&quot;glyphIndex&quot;:8,&quot;word&quot;:1}" fill-rule="nonzero"></path><path d="M384.11456,326.23383l-3.94493,-8.47891c2.42911,-0.39092 5.73909,-2.61537 6.39517,-6.50697c0.3999,-2.37202 -0.02226,-4.61582 -1.16864,-6.18127c-1.2942,-1.81907 -2.93576,-2.93438 -6.9756,-3.61546l-9.33983,-1.57461c-0.85245,-0.14371 -1.10649,0.23274 -1.21896,0.89987l-3.74281,22.20064c-0.14371,0.85245 0.18942,1.13731 0.85655,1.24978l3.66922,0.61859c0.66713,0.11247 1.11231,-0.04117 1.25603,-0.89362l3.04924,-18.08666l4.92936,0.83104c1.92727,0.32492 3.20358,1.79793 2.87866,3.7252c-0.29368,1.74195 -2.21101,2.71466 -4.02709,2.40849l-0.74126,-0.12497c-0.85245,-0.14371 -1.14356,0.22649 -1.25603,0.89362l-0.49987,2.96503c-0.17496,1.03776 -0.16956,1.45795 0.08902,1.95894l2.99679,6.64195c0.38766,0.8658 0.77618,1.27434 1.66569,1.42431l4.37341,0.73732c0.70419,0.11872 1.00198,-0.51717 0.75589,-1.09228z" data-paper-data="{&quot;glyphName&quot;:&quot;R&quot;,&quot;glyphIndex&quot;:9,&quot;lastGlyphOfWord&quot;:true,&quot;word&quot;:1}" fill-rule="nonzero"></path><path d="M136.47765,321.74041l25.39031,16.77172c0.07892,0.05232 0.16209,0.09629 0.24952,0.1319c0.0875,0.03634 0.17764,0.06359 0.27044,0.08175c0.0928,0.01817 0.18647,0.02761 0.28102,0.02834c0.09454,0 0.18825,-0.00908 0.28113,-0.02725c74.70004,-14.57488 149.40003,-14.57488 224.1,0c0.09302,0.01817 0.18676,0.02725 0.28124,0.02725c0.09447,-0.00073 0.18822,-0.01017 0.28124,-0.02834c0.09229,-0.01817 0.1824,-0.04542 0.27034,-0.08175c0.08721,-0.03561 0.17041,-0.07957 0.24962,-0.1319l25.38977,-16.77172c0.03997,-0.02689 0.07848,-0.05523 0.11555,-0.08502c0.03706,-0.0298 0.07267,-0.06177 0.10683,-0.09593c0.03343,-0.03343 0.0654,-0.06831 0.09593,-0.10465c0.03052,-0.03706 0.05923,-0.07521 0.08612,-0.11446c0.02689,-0.03997 0.0516,-0.08066 0.07412,-0.12209c0.02253,-0.04215 0.04324,-0.08539 0.06213,-0.12972c0.01817,-0.0436 0.03416,-0.0883 0.04796,-0.13408c0.01453,-0.04578 0.02652,-0.09193 0.03597,-0.13844c0.00945,-0.04651 0.01671,-0.09375 0.0218,-0.14171c0.00509,-0.04724 0.00763,-0.09484 0.00763,-0.1428c0,-0.04724 -0.00218,-0.09484 -0.00654,-0.1428c-0.00436,-0.04724 -0.0109,-0.09447 -0.01962,-0.14171c-0.00945,-0.04651 -0.02071,-0.09266 -0.03379,-0.13844c-0.01381,-0.04578 -0.0298,-0.09084 -0.04796,-0.13517c-0.01817,-0.04433 -0.03815,-0.08757 -0.05995,-0.12972c-0.02253,-0.04215 -0.04687,-0.08284 -0.07303,-0.12209l-17.07476,-25.84759c-0.05305,-0.08066 -0.11373,-0.15552 -0.18204,-0.22455c-0.06831,-0.06831 -0.1428,-0.12935 -0.22346,-0.18313c-0.08066,-0.05378 -0.16569,-0.0992 -0.25507,-0.13626c-0.08939,-0.03706 -0.18131,-0.06504 -0.27579,-0.08393c-80.6161,-15.72889 -161.2321,-15.72889 -241.84798,0c-0.09498,0.01889 -0.1872,0.04687 -0.27666,0.08393c-0.08946,0.03706 -0.17437,0.08248 -0.25475,0.13626c-0.08045,0.05378 -0.15479,0.11482 -0.22303,0.18313c-0.06817,0.06904 -0.12892,0.14389 -0.18226,0.22455l-17.07454,25.84759c-0.02631,0.03924 -0.05062,0.07994 -0.07293,0.12209c-0.02224,0.04215 -0.04237,0.08539 -0.06039,0.12972c-0.01802,0.04433 -0.03386,0.08939 -0.04753,0.13517c-0.01359,0.04578 -0.02493,0.09193 -0.03401,0.13844c-0.00901,0.04724 -0.01573,0.09447 -0.02017,0.14171c-0.00443,0.04796 -0.00654,0.09556 -0.00632,0.1428c0.00029,0.04796 0.00291,0.09556 0.00785,0.1428c0.00487,0.04796 0.0121,0.0952 0.02169,0.14171c0.00952,0.04651 0.02133,0.09266 0.03543,0.13844c0.0141,0.04578 0.03041,0.09048 0.04894,0.13408c0.01846,0.04433 0.03906,0.08757 0.06181,0.12972c0.02267,0.04142 0.04738,0.08212 0.07412,0.12209c0.02674,0.03924 0.05534,0.07739 0.08579,0.11446c0.03045,0.03634 0.06264,0.07122 0.09658,0.10465c0.03394,0.03416 0.0694,0.06613 0.10639,0.09593c0.03706,0.0298 0.07551,0.05814 0.11533,0.08502zM162.97721,335.75318l-23.6776,-15.64133l15.93433,-24.12202c79.84405,-15.50071 159.68827,-15.50071 239.53268,0l15.93346,24.12202l-23.67728,15.64133c-74.68187,-14.49567 -149.36374,-14.49567 -224.0456,0z" fill-rule="evenodd"></path></g><g data-paper-data="{&quot;isContainerElementsWrapper&quot;:true}" fill-rule="evenodd"><path d="M156.14054,184.78501c6.5281,-15.43414 15.74241,-29.10145 27.64294,-41.00193c11.90051,-11.90048 25.56783,-21.11481 41.00197,-27.64298c15.98281,-6.76007 32.72103,-10.1401 50.21466,-10.1401c17.49345,0 34.23138,3.38007 50.21499,10.1401c15.43312,6.52796 29.10034,15.74229 41.00166,27.64299c11.89986,11.90047 21.11417,25.56778 27.64293,41.00192c6.76058,15.9831 10.14086,32.72132 10.14086,50.21466c0,17.49334 -3.38029,34.23164 -10.14086,50.21488c-0.61334,1.45051 -1.25067,2.8854 -1.91197,4.30466c-0.98542,-0.18531 -1.97229,-0.36844 -2.96061,-0.54939c0.76086,-1.60966 1.49048,-3.24003 2.18885,-4.89112c6.60651,-15.61989 9.90977,-31.97956 9.90977,-49.07903c0,-17.09983 -3.30326,-33.45965 -9.90977,-49.07947c-6.38051,-15.08517 -15.38698,-28.44404 -27.01941,-40.07659c-11.63316,-11.63254 -24.99226,-20.63906 -40.07728,-27.01956c-15.61989,-6.60673 -31.9796,-9.9101 -49.07914,-9.9101c-17.09961,0 -33.45943,3.30337 -49.07947,9.9101c-15.08517,6.38051 -28.44405,15.38703 -40.07662,27.01957c-11.63266,11.63262 -20.63917,24.99147 -27.01953,40.07658c-6.6068,15.61996 -9.91021,31.97978 -9.91021,49.07947c0,17.0995 3.30344,33.45951 9.91021,49.07903c0.69829,1.65108 1.42802,3.28146 2.18918,4.89112c-0.98694,0.18022 -1.97414,0.36335 -2.96159,0.54939c-0.66087,-1.41926 -1.29805,-2.85415 -1.91154,-4.30466c-6.76014,-15.98324 -10.14021,-32.72153 -10.14021,-50.21488c0,-17.49363 3.38007,-34.23185 10.14021,-50.21466zM195.09222,336.29712c9.03983,7.15881 18.93758,13.01282 29.69324,17.56202c15.98266,6.76058 32.72088,10.14086 50.21466,10.14086c17.49342,0 34.23175,-3.38029 50.21499,-10.14086c10.7553,-4.5492 20.65271,-10.40321 29.69225,-17.56202c-1.34877,-0.18822 -2.69827,-0.37208 -4.0485,-0.55157c-8.22344,6.21336 -17.14997,11.35628 -26.7796,15.42985c-15.61989,6.60651 -31.9796,9.90977 -49.07914,9.90977c-17.09939,0 -33.45922,-3.30326 -49.07947,-9.90977c-9.62999,-4.0732 -18.55634,-9.21649 -26.77905,-15.42985c-1.35137,0.1795 -2.70116,0.36335 -4.04938,0.55157z" data-paper-data="{&quot;isAdditionalOutlinePath&quot;:true}"></path><path d="M152.8697,234.99967c0,-67.45075 54.67967,-122.13042 122.13042,-122.13042c67.45108,0 122.13085,54.67967 122.13085,122.13042c0,19.0868 -4.37879,37.15155 -12.18582,53.24307c-12.32208,-2.17577 -24.64453,-3.986 -36.96733,-5.4307c9.01483,-13.73153 14.25803,-30.15945 14.25803,-47.81238c0,-48.17907 -39.05698,-87.23598 -87.23573,-87.23598c-48.17918,0 -87.23603,39.0569 -87.23603,87.23598c0,17.65304 5.24354,34.08084 14.25811,47.81238c-12.32234,1.4447 -24.6446,3.25493 -36.96679,5.4307c-7.80725,-16.09152 -12.18571,-34.15628 -12.18571,-53.24307zM204.8858,335.01193c19.84363,13.93756 44.02353,22.11848 70.11432,22.11848c26.09079,0 50.27058,-8.18093 70.1141,-22.11848c-46.74266,-5.73592 -93.48547,-5.73592 -140.22842,0z" data-paper-data="{&quot;isBaseLogoContainer&quot;:true}"></path></g></g></g></svg>